<?xml version="1.0" encoding="UTF-8" standalone="no"?>
<!DOCTYPE svg PUBLIC "-//W3C//DTD SVG 1.1//EN" "http://www.w3.org/Graphics/SVG/1.1/DTD/svg11.dtd">
<svg width="100%" height="100%" viewBox="0 0 107 105" version="1.1" xmlns="http://www.w3.org/2000/svg" xmlns:xlink="http://www.w3.org/1999/xlink" xml:space="preserve" xmlns:serif="http://www.serif.com/" style="fill-rule:evenodd;clip-rule:evenodd;stroke-linecap:round;stroke-miterlimit:8;">
    <g transform="matrix(1,0,0,1,-38,-48)">
        <g transform="matrix(4.01303e-10,7.87402e-05,-7.87402e-05,4.01303e-10,92.501,132.167)">
            <path d="M-98105,98105.5L98106,98105.5" style="fill:none;fill-rule:nonzero;stroke:rgb(191,191,191);stroke-width:38100px;"/>
        </g>
        <g transform="matrix(-6.81908e-05,3.93704e-05,-3.93704e-05,-6.81908e-05,68.7494,95.2914)">
            <path d="M-98104.5,98105L98105.5,98105" style="fill:none;fill-rule:nonzero;stroke:rgb(191,191,191);stroke-width:38100px;"/>
        </g>
        <g transform="matrix(-6.81912e-05,-3.93697e-05,3.93697e-05,-6.81912e-05,87.6869,118.747)">
            <path d="M-98104.5,98105L98105.5,98105" style="fill:none;fill-rule:nonzero;stroke:rgb(191,191,191);stroke-width:38100px;"/>
        </g>
        <g transform="matrix(-6.81912e-05,-3.93697e-05,3.93697e-05,-6.81912e-05,101.681,95.7778)">
            <path d="M-98104.5,98105L98105.5,98105" style="fill:none;fill-rule:nonzero;stroke:rgb(191,191,191);stroke-width:38100px;"/>
        </g>
        <g transform="matrix(6.81908e-05,-3.93704e-05,3.93704e-05,6.81908e-05,73.8938,89.5749)">
            <path d="M-98104.5,98105L98105.5,98105" style="fill:none;fill-rule:nonzero;stroke:rgb(191,191,191);stroke-width:38100px;"/>
        </g>
        <g transform="matrix(1,0,0,1,39.2761,-4.27618)">
            <path d="M86.268,106.046L72.888,113.77C72.17,114.185 71.253,113.939 70.839,113.221C70.425,112.504 70.67,111.587 71.388,111.172L84.768,103.448C85.485,103.033 86.402,103.279 86.817,103.997C87.231,104.714 86.985,105.631 86.268,106.046ZM83.268,100.849C85.42,99.607 88.172,100.344 89.415,102.497C90.657,104.649 89.92,107.401 87.768,108.644C85.615,109.886 82.863,109.149 81.62,106.997C80.378,104.844 81.115,102.092 83.268,100.849ZM74.388,116.369C72.236,117.611 69.483,116.874 68.241,114.721C66.998,112.569 67.735,109.817 69.888,108.574C72.04,107.332 74.792,108.069 76.035,110.221C77.278,112.374 76.54,115.126 74.388,116.369Z" style="fill:rgb(132,79,156);fill-rule:nonzero;"/>
        </g>
        <g transform="matrix(1,0,0,1,39.2761,11.1732)">
            <path d="M72.888,98.321L59.508,106.046C58.791,106.46 57.873,106.214 57.459,105.497C57.045,104.779 57.291,103.862 58.008,103.448L71.388,95.723C72.105,95.309 73.023,95.554 73.437,96.272C73.851,96.989 73.605,97.907 72.888,98.321ZM69.888,93.125C72.04,91.882 74.792,92.62 76.035,94.772C77.278,96.924 76.54,99.676 74.388,100.919C72.235,102.162 69.483,101.424 68.241,99.272C66.998,97.12 67.735,94.367 69.888,93.125ZM61.008,108.644C58.856,109.887 56.104,109.149 54.861,106.997C53.618,104.844 54.356,102.092 56.508,100.85C58.66,99.607 61.412,100.344 62.655,102.497C63.898,104.649 63.16,107.401 61.008,108.644Z" style="fill:rgb(132,79,156);fill-rule:nonzero;"/>
        </g>
        <g transform="matrix(1,0,0,1,39.2761,11.1734)">
            <path d="M84.768,106.046L71.388,98.321C70.67,97.907 70.425,96.989 70.839,96.272C71.253,95.554 72.17,95.309 72.888,95.723L86.268,103.448C86.985,103.862 87.231,104.779 86.817,105.497C86.402,106.214 85.485,106.46 84.768,106.046ZM87.768,100.849C89.92,102.092 90.657,104.844 89.415,106.997C88.172,109.149 85.42,109.886 83.268,108.644C81.115,107.401 80.378,104.649 81.62,102.497C82.863,100.344 85.615,99.607 87.768,100.849ZM69.888,100.919C67.736,99.676 66.998,96.924 68.241,94.772C69.483,92.619 72.235,91.882 74.388,93.125C76.54,94.367 77.278,97.119 76.035,99.272C74.792,101.424 72.04,102.162 69.888,100.919Z" style="fill:rgb(132,79,156);fill-rule:nonzero;"/>
        </g>
        <g transform="matrix(1,0,0,1,39.2761,26.6231)">
            <path d="M71.388,98.321L58.008,90.596C57.291,90.182 57.045,89.264 57.459,88.547C57.873,87.83 58.791,87.584 59.508,87.998L72.888,95.723C73.605,96.137 73.851,97.054 73.437,97.772C73.023,98.489 72.105,98.735 71.388,98.321ZM74.388,93.125C76.54,94.367 77.278,97.119 76.035,99.272C74.792,101.424 72.04,102.162 69.888,100.919C67.735,99.676 66.998,96.924 68.241,94.772C69.483,92.619 72.235,91.882 74.388,93.125ZM56.508,93.194C54.356,91.952 53.618,89.199 54.861,87.047C56.103,84.895 58.856,84.157 61.008,85.4C63.16,86.643 63.898,89.395 62.655,91.547C61.412,93.699 58.66,94.437 56.508,93.194Z" style="fill:rgb(132,79,156);fill-rule:nonzero;"/>
        </g>
        <g transform="matrix(1,0,0,1,39.2761,-10.6085)">
            <path d="M74,104.05L74,119.5C74,120.328 73.329,121 72.5,121C71.672,121 71,120.328 71,119.5L71,104.05C71,103.222 71.672,102.55 72.5,102.55C73.328,102.55 74,103.222 74,104.05ZM68,104.05C68,101.565 70.015,99.55 72.5,99.55C74.985,99.55 77,101.565 77,104.05C77,106.536 74.985,108.55 72.5,108.55C70.015,108.55 68,106.536 68,104.05ZM77,119.5C77,121.985 74.985,124 72.5,124C70.015,124 68,121.985 68,119.5C68,117.015 70.015,115 72.5,115C74.985,115 77,117.015 77,119.5Z" style="fill:rgb(132,79,156);fill-rule:nonzero;"/>
        </g>
        <g transform="matrix(1,0,0,1,39.2761,51.3915)">
            <path d="M74,73.05L74,88.5C74,89.328 73.329,90 72.5,90C71.672,90 71,89.328 71,88.5L71,73.05C71,72.222 71.672,71.55 72.5,71.55C73.328,71.55 74,72.222 74,73.05ZM68,73.05C68,70.565 70.015,68.55 72.5,68.55C74.985,68.55 77,70.565 77,73.05C77,75.536 74.985,77.55 72.5,77.55C70.015,77.55 68,75.536 68,73.05ZM77,88.5C77,90.985 74.985,93 72.5,93C70.015,93 68,90.985 68,88.5C68,86.015 70.015,84 72.5,84C74.985,84 77,86.015 77,88.5Z" style="fill:rgb(132,79,156);fill-rule:nonzero;"/>
        </g>
        <g transform="matrix(1,0,0,1,39.2761,72.972)">
            <path d="M84.768,75.146L71.388,67.422C70.67,67.007 70.425,66.09 70.839,65.373C71.253,64.655 72.17,64.409 72.888,64.824L86.268,72.548C86.985,72.962 87.231,73.88 86.817,74.597C86.402,75.315 85.485,75.561 84.768,75.146ZM87.768,69.95C89.92,71.193 90.657,73.945 89.415,76.097C88.172,78.25 85.42,78.987 83.268,77.744C81.115,76.502 80.378,73.75 81.62,71.597C82.863,69.445 85.615,68.708 87.768,69.95ZM69.888,70.02C67.736,68.777 66.998,66.025 68.241,63.873C69.483,61.72 72.235,60.983 74.388,62.225C76.54,63.468 77.278,66.22 76.035,68.373C74.792,70.525 72.04,71.262 69.888,70.02Z" style="fill:rgb(132,79,156);fill-rule:nonzero;"/>
        </g>
        <g transform="matrix(1,0,0,1,39.2761,35.3915)">
            <path d="M61,81.05L61,96.5C61,97.328 60.329,98 59.5,98C58.672,98 58,97.328 58,96.5L58,81.05C58,80.222 58.672,79.55 59.5,79.55C60.328,79.55 61,80.222 61,81.05ZM55,81.05C55,78.565 57.015,76.55 59.5,76.55C61.985,76.55 64,78.565 64,81.05C64,83.536 61.985,85.55 59.5,85.55C57.015,85.55 55,83.536 55,81.05ZM64,96.5C64,98.985 61.985,101 59.5,101C57.015,101 55,98.985 55,96.5C55,94.015 57.015,92 59.5,92C61.985,92 64,94.015 64,96.5Z" style="fill:rgb(132,79,156);fill-rule:nonzero;"/>
        </g>
        <g transform="matrix(1,0,0,1,39.2761,57.3884)">
            <path d="M59.296,75.213L45.917,82.938C45.199,83.352 44.282,83.107 43.868,82.389C43.453,81.672 43.699,80.754 44.417,80.34L57.796,72.615C58.514,72.201 59.431,72.447 59.845,73.164C60.26,73.882 60.014,74.799 59.296,75.213ZM56.296,70.017C58.449,68.775 61.201,69.512 62.443,71.664C63.686,73.817 62.949,76.569 60.796,77.811C58.644,79.054 55.892,78.317 54.649,76.164C53.407,74.012 54.144,71.26 56.296,70.017ZM47.417,85.536C45.264,86.779 42.512,86.042 41.269,83.889C40.027,81.737 40.764,78.985 42.917,77.742C45.069,76.499 47.821,77.237 49.064,79.389C50.306,81.541 49.569,84.294 47.417,85.536Z" style="fill:rgb(132,79,156);fill-rule:nonzero;"/>
        </g>
        <g transform="matrix(1,0,0,1,39.2761,-88.6085)">
            <path d="M34,143.05L34,158.5C34,159.328 33.329,160 32.5,160C31.672,160 31,159.328 31,158.5L31,143.05C31,142.222 31.672,141.55 32.5,141.55C33.328,141.55 34,142.222 34,143.05ZM28,143.05C28,140.565 30.015,138.55 32.5,138.55C34.985,138.55 37,140.565 37,143.05C37,145.536 34.985,147.55 32.5,147.55C30.015,147.55 28,145.536 28,143.05ZM37,158.5C37,160.985 34.985,163 32.5,163C30.015,163 28,160.985 28,158.5C28,156.015 30.015,154 32.5,154C34.985,154 37,156.015 37,158.5Z" style="fill:rgb(189,57,51);fill-rule:nonzero;"/>
        </g>
        <g transform="matrix(1,0,0,1,39.2761,-58.6085)">
            <path d="M34,128.05L34,143.5C34,144.328 33.329,145 32.5,145C31.672,145 31,144.328 31,143.5L31,128.05C31,127.222 31.672,126.55 32.5,126.55C33.328,126.55 34,127.222 34,128.05ZM28,128.05C28,125.565 30.015,123.55 32.5,123.55C34.985,123.55 37,125.565 37,128.05C37,130.536 34.985,132.55 32.5,132.55C30.015,132.55 28,130.536 28,128.05ZM37,143.5C37,145.985 34.985,148 32.5,148C30.015,148 28,145.985 28,143.5C28,141.015 30.015,139 32.5,139C34.985,139 37,141.015 37,143.5Z" style="fill:rgb(189,57,51);fill-rule:nonzero;"/>
        </g>
        <g transform="matrix(1,0,0,1,39.2761,-82.0876)">
            <path d="M46.431,144.951L33.051,152.676C32.333,153.09 31.416,152.845 31.002,152.127C30.588,151.41 30.833,150.492 31.551,150.078L44.931,142.353C45.648,141.939 46.565,142.185 46.98,142.902C47.394,143.62 47.148,144.537 46.431,144.951ZM43.431,139.755C45.583,138.513 48.335,139.25 49.578,141.402C50.82,143.555 50.083,146.307 47.931,147.549C45.778,148.792 43.026,148.055 41.783,145.902C40.541,143.75 41.278,140.998 43.431,139.755ZM34.551,155.274C32.399,156.517 29.646,155.78 28.404,153.627C27.161,151.475 27.899,148.723 30.051,147.48C32.203,146.237 34.955,146.975 36.198,149.127C37.441,151.279 36.703,154.032 34.551,155.274Z" style="fill:rgb(189,57,51);fill-rule:nonzero;"/>
        </g>
        <g transform="matrix(1,0,0,1,39.2761,-51.1882)">
            <path d="M46.431,129.502L33.051,137.226C32.333,137.641 31.416,137.395 31.002,136.677C30.588,135.96 30.833,135.043 31.551,134.628L44.931,126.904C45.648,126.489 46.565,126.735 46.98,127.453C47.394,128.17 47.148,129.087 46.431,129.502ZM43.431,124.305C45.583,123.063 48.335,123.8 49.578,125.953C50.82,128.105 50.083,130.857 47.931,132.1C45.778,133.342 43.026,132.605 41.783,130.453C40.541,128.3 41.278,125.548 43.431,124.305ZM34.551,139.825C32.399,141.067 29.646,140.33 28.404,138.177C27.161,136.025 27.899,133.273 30.051,132.03C32.203,130.788 34.955,131.525 36.198,133.677C37.441,135.83 36.703,138.582 34.551,139.825Z" style="fill:rgb(189,57,51);fill-rule:nonzero;"/>
        </g>
        <g transform="matrix(1,0,0,1,39.2761,-82.0877)">
            <path d="M19.671,142.353L33.051,150.078C33.768,150.492 34.014,151.41 33.6,152.127C33.186,152.844 32.268,153.09 31.551,152.676L18.171,144.951C17.454,144.537 17.208,143.62 17.622,142.902C18.036,142.185 18.954,141.939 19.671,142.353ZM16.671,147.549C14.519,146.307 13.781,143.555 15.024,141.402C16.266,139.25 19.019,138.513 21.171,139.755C23.323,140.998 24.061,143.75 22.818,145.902C21.575,148.055 18.823,148.792 16.671,147.549ZM34.551,147.48C36.703,148.723 37.441,151.475 36.198,153.627C34.955,155.779 32.203,156.517 30.051,155.274C27.898,154.032 27.161,151.279 28.404,149.127C29.646,146.975 32.398,146.237 34.551,147.48Z" style="fill:rgb(189,57,51);fill-rule:nonzero;"/>
        </g>
        <g transform="matrix(1,0,0,1,39.2761,-51.1884)">
            <path d="M46.431,126.904L59.81,134.628C60.528,135.043 60.774,135.96 60.36,136.678C59.945,137.395 59.028,137.641 58.31,137.226L44.931,129.502C44.213,129.088 43.967,128.17 44.382,127.453C44.796,126.735 45.713,126.49 46.431,126.904ZM43.431,132.1C41.278,130.857 40.541,128.105 41.784,125.953C43.026,123.801 45.778,123.063 47.931,124.306C50.083,125.548 50.82,128.3 49.578,130.453C48.335,132.605 45.583,133.343 43.431,132.1ZM61.31,132.03C63.463,133.273 64.2,136.025 62.958,138.178C61.715,140.33 58.963,141.067 56.81,139.825C54.658,138.582 53.921,135.83 55.163,133.677C56.406,131.525 59.158,130.788 61.31,132.03Z" style="fill:rgb(189,57,51);fill-rule:nonzero;"/>
        </g>
        <g transform="matrix(1,0,0,1,39.2761,-51.1882)">
            <path d="M73.19,129.502L59.81,137.226C59.093,137.641 58.176,137.395 57.761,136.677C57.347,135.96 57.593,135.043 58.31,134.628L71.69,126.904C72.408,126.489 73.325,126.735 73.739,127.453C74.153,128.17 73.908,129.087 73.19,129.502ZM70.19,124.305C72.342,123.063 75.095,123.8 76.337,125.953C77.58,128.105 76.843,130.857 74.69,132.1C72.538,133.342 69.786,132.605 68.543,130.453C67.3,128.3 68.038,125.548 70.19,124.305ZM61.31,139.825C59.158,141.067 56.406,140.33 55.163,138.177C53.921,136.025 54.658,133.273 56.81,132.03C58.963,130.788 61.715,131.525 62.958,133.677C64.2,135.83 63.463,138.582 61.31,139.825Z" style="fill:rgb(189,57,51);fill-rule:nonzero;"/>
        </g>
        <g transform="matrix(1,0,0,1,39.2761,-35.7389)">
            <path d="M33.051,119.179L46.431,126.904C47.148,127.318 47.394,128.235 46.98,128.953C46.565,129.67 45.648,129.916 44.931,129.502L31.551,121.777C30.833,121.363 30.588,120.445 31.002,119.728C31.416,119.011 32.333,118.765 33.051,119.179ZM30.051,124.375C27.899,123.132 27.161,120.38 28.404,118.228C29.646,116.076 32.398,115.338 34.551,116.581C36.703,117.823 37.441,120.576 36.198,122.728C34.955,124.88 32.203,125.618 30.051,124.375ZM47.931,124.306C50.083,125.548 50.82,128.3 49.578,130.453C48.335,132.605 45.583,133.343 43.431,132.1C41.278,130.857 40.541,128.105 41.784,125.953C43.026,123.8 45.778,123.063 47.931,124.306Z" style="fill:rgb(189,57,51);fill-rule:nonzero;"/>
        </g>
        <g transform="matrix(1,0,0,1,39.2761,-82.0876)">
            <path d="M19.671,144.951L6.291,152.676C5.574,153.09 4.656,152.845 4.242,152.127C3.828,151.41 4.074,150.492 4.791,150.078L18.171,142.353C18.888,141.939 19.806,142.185 20.22,142.902C20.634,143.62 20.388,144.537 19.671,144.951ZM16.671,139.755C18.823,138.513 21.575,139.25 22.818,141.402C24.06,143.555 23.323,146.307 21.171,147.549C19.018,148.792 16.266,148.055 15.024,145.902C13.781,143.75 14.518,140.998 16.671,139.755ZM7.791,155.274C5.639,156.517 2.887,155.78 1.644,153.627C0.401,151.475 1.139,148.723 3.291,147.48C5.443,146.237 8.195,146.975 9.438,149.127C10.681,151.279 9.943,154.032 7.791,155.274Z" style="fill:rgb(189,57,51);fill-rule:nonzero;"/>
        </g>
        <g transform="matrix(1,0,0,1,39.2761,42.0719)">
            <path d="M4.274,87.998L17.654,80.274C18.371,79.859 19.288,80.105 19.703,80.823C20.117,81.54 19.871,82.457 19.154,82.872L5.774,90.596C5.056,91.011 4.139,90.765 3.725,90.047C3.311,89.33 3.556,88.413 4.274,87.998ZM7.274,93.195C5.122,94.437 2.369,93.7 1.127,91.547C-0.116,89.395 0.621,86.643 2.774,85.4C4.926,84.158 7.678,84.895 8.921,87.047C10.164,89.2 9.426,91.952 7.274,93.195ZM16.154,77.675C18.306,76.433 21.058,77.17 22.301,79.323C23.543,81.475 22.806,84.227 20.654,85.47C18.501,86.712 15.749,85.975 14.506,83.823C13.264,81.67 14.001,78.918 16.154,77.675Z" style="fill:rgb(61,151,47);fill-rule:nonzero;"/>
        </g>
        <g transform="matrix(1,0,0,1,39.2761,26.6226)">
            <path d="M17.654,95.723L31.033,87.998C31.751,87.584 32.668,87.83 33.082,88.547C33.497,89.265 33.251,90.182 32.533,90.596L19.154,98.321C18.436,98.735 17.519,98.489 17.105,97.772C16.69,97.055 16.936,96.137 17.654,95.723ZM20.654,100.919C18.501,102.162 15.749,101.424 14.507,99.272C13.264,97.12 14.001,94.368 16.154,93.125C18.306,91.882 21.058,92.62 22.301,94.772C23.543,96.924 22.806,99.677 20.654,100.919ZM29.533,85.4C31.686,84.157 34.438,84.895 35.68,87.047C36.923,89.199 36.186,91.952 34.033,93.194C31.881,94.437 29.129,93.7 27.886,91.547C26.644,89.395 27.381,86.643 29.533,85.4Z" style="fill:rgb(61,151,47);fill-rule:nonzero;"/>
        </g>
        <g transform="matrix(1,0,0,1,39.2761,26.6223)">
            <path d="M5.774,87.998L19.154,95.723C19.871,96.137 20.117,97.055 19.703,97.772C19.288,98.49 18.371,98.735 17.654,98.321L4.274,90.596C3.556,90.182 3.311,89.265 3.725,88.547C4.139,87.83 5.056,87.584 5.774,87.998ZM2.774,93.195C0.622,91.952 -0.116,89.2 1.127,87.047C2.369,84.895 5.121,84.158 7.274,85.4C9.426,86.643 10.164,89.395 8.921,91.547C7.678,93.7 4.926,94.437 2.774,93.195ZM20.654,93.125C22.806,94.368 23.543,97.12 22.301,99.272C21.058,101.424 18.306,102.162 16.154,100.919C14.001,99.677 13.264,96.924 14.506,94.772C15.749,92.62 18.501,91.882 20.654,93.125Z" style="fill:rgb(61,151,47);fill-rule:nonzero;"/>
        </g>
        <g transform="matrix(1,0,0,1,39.2761,11.1725)">
            <path d="M19.154,95.723L32.533,103.448C33.251,103.862 33.497,104.78 33.083,105.497C32.668,106.214 31.751,106.46 31.033,106.046L17.654,98.321C16.936,97.907 16.69,96.99 17.105,96.272C17.519,95.555 18.436,95.309 19.154,95.723ZM16.154,100.919C14.001,99.677 13.264,96.925 14.507,94.772C15.749,92.62 18.501,91.883 20.654,93.125C22.806,94.368 23.543,97.12 22.301,99.272C21.058,101.425 18.306,102.162 16.154,100.919ZM34.033,100.85C36.186,102.093 36.923,104.845 35.681,106.997C34.438,109.149 31.686,109.887 29.533,108.644C27.381,107.402 26.644,104.649 27.886,102.497C29.129,100.345 31.881,99.607 34.033,100.85Z" style="fill:rgb(61,151,47);fill-rule:nonzero;"/>
        </g>
        <g transform="matrix(1,0,0,1,39.2761,51.3915)">
            <path d="M17,88.5L17,73.05C17,72.222 17.671,71.55 18.5,71.55C19.328,71.55 20,72.222 20,73.05L20,88.5C20,89.328 19.328,90 18.5,90C17.672,90 17,89.328 17,88.5ZM23,88.5C23,90.985 20.985,93 18.5,93C16.015,93 14,90.985 14,88.5C14,86.015 16.015,84 18.5,84C20.985,84 23,86.015 23,88.5ZM14,73.05C14,70.565 16.015,68.55 18.5,68.55C20.985,68.55 23,70.565 23,73.05C23,75.536 20.985,77.55 18.5,77.55C16.015,77.55 14,75.536 14,73.05Z" style="fill:rgb(61,151,47);fill-rule:nonzero;"/>
        </g>
        <g transform="matrix(1,0,0,1,39.2761,-10.6085)">
            <path d="M17,119.5L17,104.05C17,103.222 17.671,102.55 18.5,102.55C19.328,102.55 20,103.222 20,104.05L20,119.5C20,120.328 19.328,121 18.5,121C17.672,121 17,120.328 17,119.5ZM23,119.5C23,121.985 20.985,124 18.5,124C16.015,124 14,121.985 14,119.5C14,117.015 16.015,115 18.5,115C20.985,115 23,117.015 23,119.5ZM14,104.05C14,101.565 16.015,99.55 18.5,99.55C20.985,99.55 23,101.565 23,104.05C23,106.536 20.985,108.55 18.5,108.55C16.015,108.55 14,106.536 14,104.05Z" style="fill:rgb(61,151,47);fill-rule:nonzero;"/>
        </g>
        <g transform="matrix(1,0,0,1,39.2761,-35.1762)">
            <path d="M5.774,118.898L19.154,126.622C19.871,127.036 20.117,127.954 19.703,128.671C19.288,129.389 18.371,129.635 17.654,129.22L4.274,121.496C3.556,121.081 3.311,120.164 3.725,119.447C4.139,118.729 5.056,118.483 5.774,118.898ZM2.774,124.094C0.622,122.851 -0.116,120.099 1.127,117.947C2.369,115.794 5.121,115.057 7.274,116.299C9.426,117.542 10.164,120.294 8.921,122.447C7.678,124.599 4.926,125.336 2.774,124.094ZM20.654,124.024C22.806,125.267 23.543,128.019 22.301,130.171C21.058,132.324 18.306,133.061 16.154,131.818C14.001,130.576 13.264,127.824 14.506,125.671C15.749,123.519 18.501,122.782 20.654,124.024Z" style="fill:rgb(61,151,47);fill-rule:nonzero;"/>
        </g>
        <g transform="matrix(1,0,0,1,39.2761,5.39155)">
            <path d="M31,111.5L31,96.05C31,95.222 31.671,94.55 32.5,94.55C33.328,94.55 34,95.222 34,96.05L34,111.5C34,112.328 33.328,113 32.5,113C31.672,113 31,112.328 31,111.5ZM37,111.5C37,113.985 34.985,116 32.5,116C30.015,116 28,113.985 28,111.5C28,109.015 30.015,107 32.5,107C34.985,107 37,109.015 37,111.5ZM28,96.05C28,93.565 30.015,91.55 32.5,91.55C34.985,91.55 37,93.565 37,96.05C37,98.536 34.985,100.55 32.5,100.55C30.015,100.55 28,98.536 28,96.05Z" style="fill:rgb(61,151,47);fill-rule:nonzero;"/>
        </g>
        <g transform="matrix(1,0,0,1,39.2761,26.2129)">
            <path d="M32.533,88.203L45.913,95.928C46.631,96.342 46.876,97.259 46.462,97.977C46.048,98.694 45.131,98.94 44.413,98.526L31.033,90.801C30.316,90.387 30.07,89.47 30.484,88.752C30.899,88.035 31.816,87.789 32.533,88.203ZM29.533,93.399C27.381,92.157 26.644,89.404 27.886,87.252C29.129,85.1 31.881,84.362 34.033,85.605C36.186,86.848 36.923,89.6 35.68,91.752C34.438,93.904 31.686,94.642 29.533,93.399ZM47.413,93.33C49.565,94.572 50.303,97.325 49.06,99.477C47.818,101.629 45.065,102.367 42.913,101.124C40.761,99.881 40.023,97.129 41.266,94.977C42.509,92.825 45.261,92.087 47.413,93.33Z" style="fill:rgb(61,151,47);fill-rule:nonzero;"/>
        </g>
        <g transform="matrix(1,0,0,1,39.2761,72.9717)">
            <path d="M19.154,64.824L32.534,72.548C33.251,72.963 33.497,73.88 33.083,74.597C32.668,75.315 31.751,75.561 31.034,75.146L17.654,67.422C16.936,67.008 16.69,66.09 17.105,65.373C17.519,64.655 18.436,64.409 19.154,64.824ZM16.154,70.02C14.001,68.777 13.264,66.025 14.507,63.873C15.749,61.72 18.501,60.983 20.654,62.226C22.806,63.468 23.543,66.22 22.301,68.373C21.058,70.525 18.306,71.262 16.154,70.02ZM34.034,69.95C36.186,71.193 36.923,73.945 35.681,76.097C34.438,78.25 31.686,78.987 29.534,77.745C27.381,76.502 26.644,73.75 27.886,71.597C29.129,69.445 31.881,68.708 34.034,69.95Z" style="fill:rgb(61,151,47);fill-rule:nonzero;"/>
        </g>
        <g transform="matrix(1,0,0,1,39.2761,-51.4128)">
            <path d="M85.653,137.339L72.273,129.614C71.556,129.2 71.31,128.282 71.724,127.565C72.139,126.848 73.056,126.602 73.773,127.016L87.153,134.741C87.871,135.155 88.117,136.072 87.702,136.79C87.288,137.507 86.371,137.753 85.653,137.339ZM88.653,132.143C90.806,133.385 91.543,136.137 90.3,138.29C89.058,140.442 86.306,141.179 84.153,139.937C82.001,138.694 81.264,135.942 82.506,133.79C83.749,131.637 86.501,130.9 88.653,132.143ZM70.773,132.212C68.621,130.969 67.884,128.217 69.126,126.065C70.369,123.913 73.121,123.175 75.273,124.418C77.426,125.661 78.163,128.413 76.921,130.565C75.678,132.717 72.926,133.455 70.773,132.212Z" style="fill:rgb(189,57,51);fill-rule:nonzero;"/>
        </g>
        <g transform="matrix(1,0,0,1,39.2761,-72.6085)">
            <path d="M75,135.05L75,150.5C75,151.328 74.329,152 73.5,152C72.672,152 72,151.328 72,150.5L72,135.05C72,134.222 72.672,133.55 73.5,133.55C74.328,133.55 75,134.222 75,135.05ZM69,135.05C69,132.565 71.015,130.55 73.5,130.55C75.985,130.55 78,132.565 78,135.05C78,137.536 75.985,139.55 73.5,139.55C71.015,139.55 69,137.536 69,135.05ZM78,150.5C78,152.985 75.985,155 73.5,155C71.015,155 69,152.985 69,150.5C69,148.015 71.015,146 73.5,146C75.985,146 78,148.015 78,150.5Z" style="fill:rgb(189,57,51);fill-rule:nonzero;"/>
        </g>
        <g transform="matrix(1,0,0,1,39.2761,35.3915)">
            <path d="M88,81.05L88,96.5C88,97.328 87.329,98 86.5,98C85.672,98 85,97.328 85,96.5L85,81.05C85,80.222 85.672,79.55 86.5,79.55C87.328,79.55 88,80.222 88,81.05ZM82,81.05C82,78.565 84.015,76.55 86.5,76.55C88.985,76.55 91,78.565 91,81.05C91,83.536 88.985,85.55 86.5,85.55C84.015,85.55 82,83.536 82,81.05ZM91,96.5C91,98.985 88.985,101 86.5,101C84.015,101 82,98.985 82,96.5C82,94.015 84.015,92 86.5,92C88.985,92 91,94.015 91,96.5Z" style="fill:rgb(132,79,156);fill-rule:nonzero;"/>
        </g>
        <g transform="matrix(1,0,0,1,39.2761,57.5216)">
            <path d="M98.28,82.872L84.9,75.147C84.183,74.733 83.937,73.815 84.351,73.098C84.766,72.38 85.683,72.135 86.4,72.549L99.78,80.273C100.498,80.688 100.744,81.605 100.329,82.322C99.915,83.04 98.998,83.286 98.28,82.872ZM101.28,77.675C103.433,78.918 104.17,81.67 102.927,83.822C101.685,85.975 98.933,86.712 96.78,85.47C94.628,84.227 93.891,81.475 95.133,79.323C96.376,77.17 99.128,76.433 101.28,77.675ZM83.401,77.745C81.248,76.502 80.511,73.75 81.753,71.598C82.996,69.445 85.748,68.708 87.9,69.951C90.053,71.193 90.79,73.945 89.548,76.098C88.305,78.25 85.553,78.988 83.401,77.745Z" style="fill:rgb(132,79,156);fill-rule:nonzero;"/>
        </g>
        <g transform="matrix(1,0,0,1,39.2761,-10.6085)">
            <path d="M47,104.05L47,119.5C47,120.328 46.329,121 45.5,121C44.672,121 44,120.328 44,119.5L44,104.05C44,103.222 44.672,102.55 45.5,102.55C46.328,102.55 47,103.222 47,104.05ZM41,104.05C41,101.565 43.015,99.55 45.5,99.55C47.985,99.55 50,101.565 50,104.05C50,106.536 47.985,108.55 45.5,108.55C43.015,108.55 41,106.536 41,104.05ZM50,119.5C50,121.985 47.985,124 45.5,124C43.015,124 41,121.985 41,119.5C41,117.015 43.015,115 45.5,115C47.985,115 50,117.015 50,119.5Z" style="fill:rgb(189,57,51);fill-rule:nonzero;"/>
        </g>
        <g transform="matrix(1,0,0,1,39.2761,65.3915)">
            <path d="M4,81.5L4,66.05C4,65.222 4.671,64.55 5.5,64.55C6.328,64.55 7,65.222 7,66.05L7,81.5C7,82.328 6.328,83 5.5,83C4.672,83 4,82.328 4,81.5ZM10,81.5C10,83.985 7.985,86 5.5,86C3.015,86 1,83.985 1,81.5C1,79.015 3.015,77 5.5,77C7.985,77 10,79.015 10,81.5ZM1,66.05C1,63.565 3.015,61.55 5.5,61.55C7.985,61.55 10,63.565 10,66.05C10,68.536 7.985,70.55 5.5,70.55C3.015,70.55 1,68.536 1,66.05Z" style="fill:rgb(61,151,47);fill-rule:nonzero;"/>
        </g>
    </g>
</svg>
