<?xml version="1.0" encoding="UTF-8" standalone="no"?>
<svg
   width="576.53583"
   height="140.62686"
   viewBox="0 0 576.53583 140.62686"
   version="1.1"
   xml:space="preserve"
   style="clip-rule:evenodd;fill-rule:evenodd;stroke-linecap:round;stroke-miterlimit:8"
   id="svg186"
   sodipodi:docname="logo-full.svg"
   inkscape:version="1.1 (1:1.1+202105261517+ce6663b3b7)"
   xmlns:inkscape="http://www.inkscape.org/namespaces/inkscape"
   xmlns:sodipodi="http://sodipodi.sourceforge.net/DTD/sodipodi-0.dtd"
   xmlns="http://www.w3.org/2000/svg"
   xmlns:svg="http://www.w3.org/2000/svg"><defs
   id="defs190"><inkscape:path-effect
     effect="fillet_chamfer"
     id="path-effect1251"
     is_visible="true"
     lpeversion="1"
     satellites_param="F,0,0,1,0,30,0,1 @ F,0,0,1,0,30,0,1 @ F,0,0,1,0,30,0,1 @ F,0,0,1,0,30,0,1"
     unit="px"
     method="auto"
     mode="F"
     radius="30"
     chamfer_steps="1"
     flexible="false"
     use_knot_distance="true"
     apply_no_radius="true"
     apply_with_radius="true"
     only_selected="false"
     hide_knots="false" /></defs><sodipodi:namedview
   id="namedview188"
   pagecolor="#ffffff"
   bordercolor="#666666"
   borderopacity="1.0"
   inkscape:pageshadow="2"
   inkscape:pageopacity="0.0"
   inkscape:pagecheckerboard="0"
   showgrid="false"
   inkscape:zoom="1.307377"
   inkscape:cx="242.85266"
   inkscape:cy="178.21944"
   inkscape:window-width="1920"
   inkscape:window-height="1080"
   inkscape:window-x="0"
   inkscape:window-y="-37"
   inkscape:window-maximized="1"
   inkscape:current-layer="svg186" />
    <path
   style="fill:#ffffff;stroke:#b3b3b3;stroke-width:0;stroke-linejoin:round;stroke-miterlimit:8;stroke-dasharray:none"
   id="rect1029"
   width="576.53583"
   height="140.62686"
   x="5e-07"
   y="5e-07"
   inkscape:path-effect="#path-effect1251"
   d="M 30,5e-7 H 546.53583 A 30,30 45 0 1 576.53583,30 v 80.62686 a 30,30 135 0 1 -30,30 H 30 A 30,30 45 0 1 5e-7,110.62686 V 30 A 30,30 135 0 1 30,5e-7 Z"
   sodipodi:type="rect" /><g
   transform="matrix(1.2911662,0,0,1.2911662,-21.386951,-60.824764)"
   id="g184">
        <g
   transform="translate(44.9574,4.44943)"
   id="g26">
            <g
   transform="matrix(100,0,0,100,108.502,128)"
   id="g4">
                <path
   d="M 0.431,0 H 0.33 V -0.431 L 0.266,-0.202 H 0.188 L 0.125,-0.431 V 0 H 0.024 v -0.637 h 0.12 l 0.083,0.288 0.083,-0.288 h 0.121 z"
   style="fill-rule:nonzero"
   id="path2" />
            </g>
            <g
   transform="matrix(100,0,0,100,157.502,128)"
   id="g8">
                <path
   d="m -0.002,-0.131 c 0,-0.027 0.007,-0.05 0.022,-0.07 0.014,-0.02 0.033,-0.037 0.056,-0.05 0.023,-0.013 0.05,-0.023 0.08,-0.03 0.03,-0.007 0.061,-0.01 0.092,-0.01 0.017,0 0.032,0 0.044,0.001 0.013,0.001 0.025,0.002 0.038,0.003 V -0.305 C 0.33,-0.329 0.321,-0.347 0.302,-0.358 0.284,-0.37 0.26,-0.376 0.23,-0.376 c -0.027,0 -0.055,0.004 -0.084,0.011 -0.028,0.008 -0.055,0.019 -0.08,0.034 L 0.025,-0.41 c 0.03,-0.017 0.062,-0.031 0.096,-0.041 0.035,-0.01 0.071,-0.015 0.109,-0.015 0.025,0 0.049,0.003 0.073,0.008 0.024,0.006 0.045,0.015 0.064,0.028 0.019,0.013 0.035,0.029 0.046,0.049 0.011,0.021 0.017,0.046 0.017,0.076 V 0 H 0.33 V -0.067 C 0.314,-0.042 0.291,-0.023 0.26,-0.009 0.228,0.004 0.195,0.011 0.159,0.011 0.137,0.011 0.116,0.008 0.096,0.002 0.077,-0.004 0.06,-0.013 0.045,-0.025 0.031,-0.037 0.02,-0.052 0.011,-0.07 0.002,-0.087 -0.002,-0.108 -0.002,-0.131 Z m 0.187,0.052 c 0.02,0 0.039,-0.003 0.056,-0.008 C 0.258,-0.092 0.274,-0.099 0.287,-0.108 0.3,-0.117 0.311,-0.127 0.319,-0.14 0.326,-0.153 0.33,-0.167 0.33,-0.182 V -0.199 C 0.314,-0.202 0.299,-0.203 0.285,-0.204 c -0.014,0 -0.026,0 -0.037,0 -0.049,0 -0.087,0.006 -0.112,0.019 -0.025,0.013 -0.038,0.03 -0.038,0.049 0,0.038 0.029,0.057 0.087,0.057 z"
   style="fill-rule:nonzero"
   id="path6" />
            </g>
            <g
   transform="matrix(100,0,0,100,206.502,128)"
   id="g12">
                <path
   d="M 0.431,0 H 0.33 V -0.042 C 0.311,-0.025 0.291,-0.012 0.271,-0.002 0.251,0.007 0.229,0.011 0.203,0.011 0.174,0.011 0.147,0.005 0.122,-0.006 0.097,-0.018 0.075,-0.034 0.057,-0.055 0.039,-0.076 0.025,-0.102 0.014,-0.131 0.004,-0.16 -0.001,-0.192 -0.001,-0.227 c 0,-0.035 0.005,-0.067 0.015,-0.096 0.011,-0.029 0.025,-0.055 0.043,-0.076 0.018,-0.021 0.04,-0.037 0.065,-0.049 0.025,-0.012 0.052,-0.018 0.081,-0.018 0.026,0 0.048,0.004 0.068,0.013 0.02,0.009 0.04,0.022 0.059,0.039 V -0.546 H 0.242 V -0.637 H 0.431 Z M 0.33,-0.334 C 0.318,-0.347 0.302,-0.358 0.283,-0.365 0.264,-0.372 0.246,-0.375 0.229,-0.375 0.191,-0.375 0.16,-0.361 0.136,-0.334 0.112,-0.307 0.1,-0.271 0.1,-0.227 c 0,0.044 0.012,0.079 0.036,0.106 0.024,0.027 0.055,0.041 0.093,0.041 0.017,0 0.035,-0.004 0.054,-0.011 0.019,-0.007 0.035,-0.017 0.047,-0.03 z"
   style="fill-rule:nonzero"
   id="path10" />
            </g>
            <g
   transform="matrix(100,0,0,100,255.502,128)"
   id="g16">
                <path
   d="M 0.431,0 H 0.314 L 0.125,-0.462 V 0 H 0.024 v -0.637 h 0.127 l 0.179,0.439 v -0.439 h 0.101 z"
   style="fill-rule:nonzero"
   id="path14" />
            </g>
            <g
   transform="matrix(100,0,0,100,304.502,128)"
   id="g20">
                <path
   d="M 0.431,0 H 0.024 v -0.637 h 0.101 v 0.546 h 0.306 z"
   style="fill-rule:nonzero"
   id="path18" />
            </g>
            <g
   transform="matrix(100,0,0,100,353.502,128)"
   id="g24">
                <path
   d="m 0.455,-0.447 c 0,0.064 -0.019,0.111 -0.058,0.143 -0.039,0.031 -0.093,0.046 -0.162,0.046 H 0.125 V 0 H 0.024 v -0.637 h 0.21 c 0.07,0 0.124,0.016 0.163,0.048 0.039,0.032 0.058,0.079 0.058,0.142 z M 0.354,-0.448 c 0,-0.033 -0.011,-0.057 -0.032,-0.073 -0.021,-0.017 -0.05,-0.025 -0.087,-0.025 h -0.11 v 0.197 h 0.11 c 0.037,0 0.066,-0.008 0.087,-0.025 0.021,-0.016 0.032,-0.041 0.032,-0.074 z"
   style="fill-rule:nonzero"
   id="path22" />
            </g>
        </g>
        <g
   transform="matrix(0,7.87402e-5,-7.87402e-5,0,92.501,132.167)"
   id="g30">
            <path
   d="M -98105,98105.5 H 98106"
   style="fill:none;fill-rule:nonzero;stroke:#bfbfbf;stroke-width:38100px"
   id="path28" />
        </g>
        <g
   transform="matrix(-6.81908e-5,3.93704e-5,-3.93704e-5,-6.81908e-5,68.7494,95.2914)"
   id="g34">
            <path
   d="m -98104.5,98105 h 196210"
   style="fill:none;fill-rule:nonzero;stroke:#bfbfbf;stroke-width:38100px"
   id="path32" />
        </g>
        <g
   transform="matrix(-6.81912e-5,-3.93697e-5,3.93697e-5,-6.81912e-5,87.6869,118.747)"
   id="g38">
            <path
   d="m -98104.5,98105 h 196210"
   style="fill:none;fill-rule:nonzero;stroke:#bfbfbf;stroke-width:38100px"
   id="path36" />
        </g>
        <g
   transform="matrix(-6.81912e-5,-3.93697e-5,3.93697e-5,-6.81912e-5,101.681,95.7778)"
   id="g42">
            <path
   d="m -98104.5,98105 h 196210"
   style="fill:none;fill-rule:nonzero;stroke:#bfbfbf;stroke-width:38100px"
   id="path40" />
        </g>
        <g
   transform="matrix(6.81908e-5,-3.93704e-5,3.93704e-5,6.81908e-5,73.8938,89.5749)"
   id="g46">
            <path
   d="m -98104.5,98105 h 196210"
   style="fill:none;fill-rule:nonzero;stroke:#bfbfbf;stroke-width:38100px"
   id="path44" />
        </g>
        <g
   transform="translate(39.2761,-4.27618)"
   id="g50">
            <path
   d="m 86.268,106.046 -13.38,7.724 c -0.718,0.415 -1.635,0.169 -2.049,-0.549 -0.414,-0.717 -0.169,-1.634 0.549,-2.049 l 13.38,-7.724 c 0.717,-0.415 1.634,-0.169 2.049,0.549 0.414,0.717 0.168,1.634 -0.549,2.049 z m -3,-5.197 c 2.152,-1.242 4.904,-0.505 6.147,1.648 1.242,2.152 0.505,4.904 -1.647,6.147 -2.153,1.242 -4.905,0.505 -6.148,-1.647 -1.242,-2.153 -0.505,-4.905 1.648,-6.148 z m -8.88,15.52 c -2.152,1.242 -4.905,0.505 -6.147,-1.648 -1.243,-2.152 -0.506,-4.904 1.647,-6.147 2.152,-1.242 4.904,-0.505 6.147,1.647 1.243,2.153 0.505,4.905 -1.647,6.148 z"
   style="fill:#844f9c;fill-rule:nonzero"
   id="path48" />
        </g>
        <g
   transform="translate(39.2761,11.1732)"
   id="g54">
            <path
   d="m 72.888,98.321 -13.38,7.725 c -0.717,0.414 -1.635,0.168 -2.049,-0.549 -0.414,-0.718 -0.168,-1.635 0.549,-2.049 l 13.38,-7.725 c 0.717,-0.414 1.635,-0.169 2.049,0.549 0.414,0.717 0.168,1.635 -0.549,2.049 z m -3,-5.196 c 2.152,-1.243 4.904,-0.505 6.147,1.647 1.243,2.152 0.505,4.904 -1.647,6.147 -2.153,1.243 -4.905,0.505 -6.147,-1.647 -1.243,-2.152 -0.506,-4.905 1.647,-6.147 z m -8.88,15.519 c -2.152,1.243 -4.904,0.505 -6.147,-1.647 -1.243,-2.153 -0.505,-4.905 1.647,-6.147 2.152,-1.243 4.904,-0.506 6.147,1.647 1.243,2.152 0.505,4.904 -1.647,6.147 z"
   style="fill:#844f9c;fill-rule:nonzero"
   id="path52" />
        </g>
        <g
   transform="translate(39.2761,11.1734)"
   id="g58">
            <path
   d="m 84.768,106.046 -13.38,-7.725 c -0.718,-0.414 -0.963,-1.332 -0.549,-2.049 0.414,-0.718 1.331,-0.963 2.049,-0.549 l 13.38,7.725 c 0.717,0.414 0.963,1.331 0.549,2.049 -0.415,0.717 -1.332,0.963 -2.049,0.549 z m 3,-5.197 c 2.152,1.243 2.889,3.995 1.647,6.148 -1.243,2.152 -3.995,2.889 -6.147,1.647 -2.153,-1.243 -2.89,-3.995 -1.648,-6.147 1.243,-2.153 3.995,-2.89 6.148,-1.648 z m -17.88,0.07 c -2.152,-1.243 -2.89,-3.995 -1.647,-6.147 1.242,-2.153 3.994,-2.89 6.147,-1.647 2.152,1.242 2.89,3.994 1.647,6.147 -1.243,2.152 -3.995,2.89 -6.147,1.647 z"
   style="fill:#844f9c;fill-rule:nonzero"
   id="path56" />
        </g>
        <g
   transform="translate(39.2761,26.6231)"
   id="g62">
            <path
   d="m 71.388,98.321 -13.38,-7.725 c -0.717,-0.414 -0.963,-1.332 -0.549,-2.049 0.414,-0.717 1.332,-0.963 2.049,-0.549 l 13.38,7.725 c 0.717,0.414 0.963,1.331 0.549,2.049 -0.414,0.717 -1.332,0.963 -2.049,0.549 z m 3,-5.196 c 2.152,1.242 2.89,3.994 1.647,6.147 -1.243,2.152 -3.995,2.89 -6.147,1.647 -2.153,-1.243 -2.89,-3.995 -1.647,-6.147 1.242,-2.153 3.994,-2.89 6.147,-1.647 z m -17.88,0.069 c -2.152,-1.242 -2.89,-3.995 -1.647,-6.147 1.242,-2.152 3.995,-2.89 6.147,-1.647 2.152,1.243 2.89,3.995 1.647,6.147 -1.243,2.152 -3.995,2.89 -6.147,1.647 z"
   style="fill:#844f9c;fill-rule:nonzero"
   id="path60" />
        </g>
        <g
   transform="translate(39.2761,-10.6085)"
   id="g66">
            <path
   d="m 74,104.05 v 15.45 c 0,0.828 -0.671,1.5 -1.5,1.5 -0.828,0 -1.5,-0.672 -1.5,-1.5 v -15.45 c 0,-0.828 0.672,-1.5 1.5,-1.5 0.828,0 1.5,0.672 1.5,1.5 z m -6,0 c 0,-2.485 2.015,-4.5 4.5,-4.5 2.485,0 4.5,2.015 4.5,4.5 0,2.486 -2.015,4.5 -4.5,4.5 -2.485,0 -4.5,-2.014 -4.5,-4.5 z m 9,15.45 c 0,2.485 -2.015,4.5 -4.5,4.5 -2.485,0 -4.5,-2.015 -4.5,-4.5 0,-2.485 2.015,-4.5 4.5,-4.5 2.485,0 4.5,2.015 4.5,4.5 z"
   style="fill:#844f9c;fill-rule:nonzero"
   id="path64" />
        </g>
        <g
   transform="translate(39.2761,51.3915)"
   id="g70">
            <path
   d="M 74,73.05 V 88.5 C 74,89.328 73.329,90 72.5,90 71.672,90 71,89.328 71,88.5 V 73.05 c 0,-0.828 0.672,-1.5 1.5,-1.5 0.828,0 1.5,0.672 1.5,1.5 z m -6,0 c 0,-2.485 2.015,-4.5 4.5,-4.5 2.485,0 4.5,2.015 4.5,4.5 0,2.486 -2.015,4.5 -4.5,4.5 -2.485,0 -4.5,-2.014 -4.5,-4.5 z M 77,88.5 C 77,90.985 74.985,93 72.5,93 70.015,93 68,90.985 68,88.5 68,86.015 70.015,84 72.5,84 c 2.485,0 4.5,2.015 4.5,4.5 z"
   style="fill:#844f9c;fill-rule:nonzero"
   id="path68" />
        </g>
        <g
   transform="translate(39.2761,72.972)"
   id="g74">
            <path
   d="m 84.768,75.146 -13.38,-7.724 c -0.718,-0.415 -0.963,-1.332 -0.549,-2.049 0.414,-0.718 1.331,-0.964 2.049,-0.549 l 13.38,7.724 c 0.717,0.414 0.963,1.332 0.549,2.049 -0.415,0.718 -1.332,0.964 -2.049,0.549 z m 3,-5.196 c 2.152,1.243 2.889,3.995 1.647,6.147 -1.243,2.153 -3.995,2.89 -6.147,1.647 -2.153,-1.242 -2.89,-3.994 -1.648,-6.147 1.243,-2.152 3.995,-2.889 6.148,-1.647 z m -17.88,0.07 c -2.152,-1.243 -2.89,-3.995 -1.647,-6.147 1.242,-2.153 3.994,-2.89 6.147,-1.648 2.152,1.243 2.89,3.995 1.647,6.148 -1.243,2.152 -3.995,2.889 -6.147,1.647 z"
   style="fill:#844f9c;fill-rule:nonzero"
   id="path72" />
        </g>
        <g
   transform="translate(39.2761,35.3915)"
   id="g78">
            <path
   d="M 61,81.05 V 96.5 C 61,97.328 60.329,98 59.5,98 58.672,98 58,97.328 58,96.5 V 81.05 c 0,-0.828 0.672,-1.5 1.5,-1.5 0.828,0 1.5,0.672 1.5,1.5 z m -6,0 c 0,-2.485 2.015,-4.5 4.5,-4.5 2.485,0 4.5,2.015 4.5,4.5 0,2.486 -2.015,4.5 -4.5,4.5 -2.485,0 -4.5,-2.014 -4.5,-4.5 z m 9,15.45 c 0,2.485 -2.015,4.5 -4.5,4.5 -2.485,0 -4.5,-2.015 -4.5,-4.5 0,-2.485 2.015,-4.5 4.5,-4.5 2.485,0 4.5,2.015 4.5,4.5 z"
   style="fill:#844f9c;fill-rule:nonzero"
   id="path76" />
        </g>
        <g
   transform="translate(39.2761,57.3884)"
   id="g82">
            <path
   d="m 59.296,75.213 -13.379,7.725 c -0.718,0.414 -1.635,0.169 -2.049,-0.549 -0.415,-0.717 -0.169,-1.635 0.549,-2.049 l 13.379,-7.725 c 0.718,-0.414 1.635,-0.168 2.049,0.549 0.415,0.718 0.169,1.635 -0.549,2.049 z m -3,-5.196 c 2.153,-1.242 4.905,-0.505 6.147,1.647 1.243,2.153 0.506,4.905 -1.647,6.147 -2.152,1.243 -4.904,0.506 -6.147,-1.647 -1.242,-2.152 -0.505,-4.904 1.647,-6.147 z m -8.879,15.519 c -2.153,1.243 -4.905,0.506 -6.148,-1.647 -1.242,-2.152 -0.505,-4.904 1.648,-6.147 2.152,-1.243 4.904,-0.505 6.147,1.647 1.242,2.152 0.505,4.905 -1.647,6.147 z"
   style="fill:#844f9c;fill-rule:nonzero"
   id="path80" />
        </g>
        <g
   transform="translate(39.2761,-88.6085)"
   id="g86">
            <path
   d="m 34,143.05 v 15.45 c 0,0.828 -0.671,1.5 -1.5,1.5 -0.828,0 -1.5,-0.672 -1.5,-1.5 v -15.45 c 0,-0.828 0.672,-1.5 1.5,-1.5 0.828,0 1.5,0.672 1.5,1.5 z m -6,0 c 0,-2.485 2.015,-4.5 4.5,-4.5 2.485,0 4.5,2.015 4.5,4.5 0,2.486 -2.015,4.5 -4.5,4.5 -2.485,0 -4.5,-2.014 -4.5,-4.5 z m 9,15.45 c 0,2.485 -2.015,4.5 -4.5,4.5 -2.485,0 -4.5,-2.015 -4.5,-4.5 0,-2.485 2.015,-4.5 4.5,-4.5 2.485,0 4.5,2.015 4.5,4.5 z"
   style="fill:#bd3933;fill-rule:nonzero"
   id="path84" />
        </g>
        <g
   transform="translate(39.2761,-58.6085)"
   id="g90">
            <path
   d="m 34,128.05 v 15.45 c 0,0.828 -0.671,1.5 -1.5,1.5 -0.828,0 -1.5,-0.672 -1.5,-1.5 v -15.45 c 0,-0.828 0.672,-1.5 1.5,-1.5 0.828,0 1.5,0.672 1.5,1.5 z m -6,0 c 0,-2.485 2.015,-4.5 4.5,-4.5 2.485,0 4.5,2.015 4.5,4.5 0,2.486 -2.015,4.5 -4.5,4.5 -2.485,0 -4.5,-2.014 -4.5,-4.5 z m 9,15.45 c 0,2.485 -2.015,4.5 -4.5,4.5 -2.485,0 -4.5,-2.015 -4.5,-4.5 0,-2.485 2.015,-4.5 4.5,-4.5 2.485,0 4.5,2.015 4.5,4.5 z"
   style="fill:#bd3933;fill-rule:nonzero"
   id="path88" />
        </g>
        <g
   transform="translate(39.2761,-82.0876)"
   id="g94">
            <path
   d="m 46.431,144.951 -13.38,7.725 c -0.718,0.414 -1.635,0.169 -2.049,-0.549 -0.414,-0.717 -0.169,-1.635 0.549,-2.049 l 13.38,-7.725 c 0.717,-0.414 1.634,-0.168 2.049,0.549 0.414,0.718 0.168,1.635 -0.549,2.049 z m -3,-5.196 c 2.152,-1.242 4.904,-0.505 6.147,1.647 1.242,2.153 0.505,4.905 -1.647,6.147 -2.153,1.243 -4.905,0.506 -6.148,-1.647 -1.242,-2.152 -0.505,-4.904 1.648,-6.147 z m -8.88,15.519 c -2.152,1.243 -4.905,0.506 -6.147,-1.647 -1.243,-2.152 -0.505,-4.904 1.647,-6.147 2.152,-1.243 4.904,-0.505 6.147,1.647 1.243,2.152 0.505,4.905 -1.647,6.147 z"
   style="fill:#bd3933;fill-rule:nonzero"
   id="path92" />
        </g>
        <g
   transform="translate(39.2761,-51.1882)"
   id="g98">
            <path
   d="m 46.431,129.502 -13.38,7.724 c -0.718,0.415 -1.635,0.169 -2.049,-0.549 -0.414,-0.717 -0.169,-1.634 0.549,-2.049 l 13.38,-7.724 c 0.717,-0.415 1.634,-0.169 2.049,0.549 0.414,0.717 0.168,1.634 -0.549,2.049 z m -3,-5.197 c 2.152,-1.242 4.904,-0.505 6.147,1.648 1.242,2.152 0.505,4.904 -1.647,6.147 -2.153,1.242 -4.905,0.505 -6.148,-1.647 -1.242,-2.153 -0.505,-4.905 1.648,-6.148 z m -8.88,15.52 c -2.152,1.242 -4.905,0.505 -6.147,-1.648 -1.243,-2.152 -0.505,-4.904 1.647,-6.147 2.152,-1.242 4.904,-0.505 6.147,1.647 1.243,2.153 0.505,4.905 -1.647,6.148 z"
   style="fill:#bd3933;fill-rule:nonzero"
   id="path96" />
        </g>
        <g
   transform="translate(39.2761,-82.0877)"
   id="g102">
            <path
   d="m 19.671,142.353 13.38,7.725 c 0.717,0.414 0.963,1.332 0.549,2.049 -0.414,0.717 -1.332,0.963 -2.049,0.549 l -13.38,-7.725 c -0.717,-0.414 -0.963,-1.331 -0.549,-2.049 0.414,-0.717 1.332,-0.963 2.049,-0.549 z m -3,5.196 c -2.152,-1.242 -2.89,-3.994 -1.647,-6.147 1.242,-2.152 3.995,-2.889 6.147,-1.647 2.152,1.243 2.89,3.995 1.647,6.147 -1.243,2.153 -3.995,2.89 -6.147,1.647 z m 17.88,-0.069 c 2.152,1.243 2.89,3.995 1.647,6.147 -1.243,2.152 -3.995,2.89 -6.147,1.647 -2.153,-1.242 -2.89,-3.995 -1.647,-6.147 1.242,-2.152 3.994,-2.89 6.147,-1.647 z"
   style="fill:#bd3933;fill-rule:nonzero"
   id="path100" />
        </g>
        <g
   transform="translate(39.2761,-51.1884)"
   id="g106">
            <path
   d="m 46.431,126.904 13.379,7.724 c 0.718,0.415 0.964,1.332 0.55,2.05 -0.415,0.717 -1.332,0.963 -2.05,0.548 l -13.379,-7.724 c -0.718,-0.414 -0.964,-1.332 -0.549,-2.049 0.414,-0.718 1.331,-0.963 2.049,-0.549 z m -3,5.196 c -2.153,-1.243 -2.89,-3.995 -1.647,-6.147 1.242,-2.152 3.994,-2.89 6.147,-1.647 2.152,1.242 2.889,3.994 1.647,6.147 -1.243,2.152 -3.995,2.89 -6.147,1.647 z m 17.879,-0.07 c 2.153,1.243 2.89,3.995 1.648,6.148 -1.243,2.152 -3.995,2.889 -6.148,1.647 -2.152,-1.243 -2.889,-3.995 -1.647,-6.148 1.243,-2.152 3.995,-2.889 6.147,-1.647 z"
   style="fill:#bd3933;fill-rule:nonzero"
   id="path104" />
        </g>
        <g
   transform="translate(39.2761,-51.1882)"
   id="g110">
            <path
   d="m 73.19,129.502 -13.38,7.724 c -0.717,0.415 -1.634,0.169 -2.049,-0.549 -0.414,-0.717 -0.168,-1.634 0.549,-2.049 l 13.38,-7.724 c 0.718,-0.415 1.635,-0.169 2.049,0.549 0.414,0.717 0.169,1.634 -0.549,2.049 z m -3,-5.197 c 2.152,-1.242 4.905,-0.505 6.147,1.648 1.243,2.152 0.506,4.904 -1.647,6.147 -2.152,1.242 -4.904,0.505 -6.147,-1.647 -1.243,-2.153 -0.505,-4.905 1.647,-6.148 z m -8.88,15.52 c -2.152,1.242 -4.904,0.505 -6.147,-1.648 -1.242,-2.152 -0.505,-4.904 1.647,-6.147 2.153,-1.242 4.905,-0.505 6.148,1.647 1.242,2.153 0.505,4.905 -1.648,6.148 z"
   style="fill:#bd3933;fill-rule:nonzero"
   id="path108" />
        </g>
        <g
   transform="translate(39.2761,-35.7389)"
   id="g114">
            <path
   d="m 33.051,119.179 13.38,7.725 c 0.717,0.414 0.963,1.331 0.549,2.049 -0.415,0.717 -1.332,0.963 -2.049,0.549 l -13.38,-7.725 c -0.718,-0.414 -0.963,-1.332 -0.549,-2.049 0.414,-0.717 1.331,-0.963 2.049,-0.549 z m -3,5.196 c -2.152,-1.243 -2.89,-3.995 -1.647,-6.147 1.242,-2.152 3.994,-2.89 6.147,-1.647 2.152,1.242 2.89,3.995 1.647,6.147 -1.243,2.152 -3.995,2.89 -6.147,1.647 z m 17.88,-0.069 c 2.152,1.242 2.889,3.994 1.647,6.147 -1.243,2.152 -3.995,2.89 -6.147,1.647 -2.153,-1.243 -2.89,-3.995 -1.647,-6.147 1.242,-2.153 3.994,-2.89 6.147,-1.647 z"
   style="fill:#bd3933;fill-rule:nonzero"
   id="path112" />
        </g>
        <g
   transform="translate(39.2761,-82.0876)"
   id="g118">
            <path
   d="m 19.671,144.951 -13.38,7.725 c -0.717,0.414 -1.635,0.169 -2.049,-0.549 -0.414,-0.717 -0.168,-1.635 0.549,-2.049 l 13.38,-7.725 c 0.717,-0.414 1.635,-0.168 2.049,0.549 0.414,0.718 0.168,1.635 -0.549,2.049 z m -3,-5.196 c 2.152,-1.242 4.904,-0.505 6.147,1.647 1.242,2.153 0.505,4.905 -1.647,6.147 -2.153,1.243 -4.905,0.506 -6.147,-1.647 -1.243,-2.152 -0.506,-4.904 1.647,-6.147 z m -8.88,15.519 c -2.152,1.243 -4.904,0.506 -6.147,-1.647 -1.243,-2.152 -0.505,-4.904 1.647,-6.147 2.152,-1.243 4.904,-0.505 6.147,1.647 1.243,2.152 0.505,4.905 -1.647,6.147 z"
   style="fill:#bd3933;fill-rule:nonzero"
   id="path116" />
        </g>
        <g
   transform="translate(39.2761,42.0719)"
   id="g122">
            <path
   d="m 4.274,87.998 13.38,-7.724 c 0.717,-0.415 1.634,-0.169 2.049,0.549 0.414,0.717 0.168,1.634 -0.549,2.049 L 5.774,90.596 C 5.056,91.011 4.139,90.765 3.725,90.047 3.311,89.33 3.556,88.413 4.274,87.998 Z m 3,5.197 C 5.122,94.437 2.369,93.7 1.127,91.547 -0.116,89.395 0.621,86.643 2.774,85.4 c 2.152,-1.242 4.904,-0.505 6.147,1.647 1.243,2.153 0.505,4.905 -1.647,6.148 z m 8.88,-15.52 c 2.152,-1.242 4.904,-0.505 6.147,1.648 1.242,2.152 0.505,4.904 -1.647,6.147 -2.153,1.242 -4.905,0.505 -6.148,-1.647 -1.242,-2.153 -0.505,-4.905 1.648,-6.148 z"
   style="fill:#3d972f;fill-rule:nonzero"
   id="path120" />
        </g>
        <g
   transform="translate(39.2761,26.6226)"
   id="g126">
            <path
   d="m 17.654,95.723 13.379,-7.725 c 0.718,-0.414 1.635,-0.168 2.049,0.549 0.415,0.718 0.169,1.635 -0.549,2.049 l -13.379,7.725 c -0.718,0.414 -1.635,0.168 -2.049,-0.549 -0.415,-0.717 -0.169,-1.635 0.549,-2.049 z m 3,5.196 c -2.153,1.243 -4.905,0.505 -6.147,-1.647 -1.243,-2.152 -0.506,-4.904 1.647,-6.147 2.152,-1.243 4.904,-0.505 6.147,1.647 1.242,2.152 0.505,4.905 -1.647,6.147 z M 29.533,85.4 c 2.153,-1.243 4.905,-0.505 6.147,1.647 1.243,2.152 0.506,4.905 -1.647,6.147 -2.152,1.243 -4.904,0.506 -6.147,-1.647 -1.242,-2.152 -0.505,-4.904 1.647,-6.147 z"
   style="fill:#3d972f;fill-rule:nonzero"
   id="path124" />
        </g>
        <g
   transform="translate(39.2761,26.6223)"
   id="g130">
            <path
   d="m 5.774,87.998 13.38,7.725 c 0.717,0.414 0.963,1.332 0.549,2.049 -0.415,0.718 -1.332,0.963 -2.049,0.549 L 4.274,90.596 C 3.556,90.182 3.311,89.265 3.725,88.547 4.139,87.83 5.056,87.584 5.774,87.998 Z m -3,5.197 C 0.622,91.952 -0.116,89.2 1.127,87.047 2.369,84.895 5.121,84.158 7.274,85.4 c 2.152,1.243 2.89,3.995 1.647,6.147 -1.243,2.153 -3.995,2.89 -6.147,1.648 z m 17.88,-0.07 c 2.152,1.243 2.889,3.995 1.647,6.147 -1.243,2.152 -3.995,2.89 -6.147,1.647 -2.153,-1.242 -2.89,-3.995 -1.648,-6.147 1.243,-2.152 3.995,-2.89 6.148,-1.647 z"
   style="fill:#3d972f;fill-rule:nonzero"
   id="path128" />
        </g>
        <g
   transform="translate(39.2761,11.1725)"
   id="g134">
            <path
   d="m 19.154,95.723 13.379,7.725 c 0.718,0.414 0.964,1.332 0.55,2.049 -0.415,0.717 -1.332,0.963 -2.05,0.549 L 17.654,98.321 c -0.718,-0.414 -0.964,-1.331 -0.549,-2.049 0.414,-0.717 1.331,-0.963 2.049,-0.549 z m -3,5.196 c -2.153,-1.242 -2.89,-3.994 -1.647,-6.147 1.242,-2.152 3.994,-2.889 6.147,-1.647 2.152,1.243 2.889,3.995 1.647,6.147 -1.243,2.153 -3.995,2.89 -6.147,1.647 z m 17.879,-0.069 c 2.153,1.243 2.89,3.995 1.648,6.147 -1.243,2.152 -3.995,2.89 -6.148,1.647 -2.152,-1.242 -2.889,-3.995 -1.647,-6.147 1.243,-2.152 3.995,-2.89 6.147,-1.647 z"
   style="fill:#3d972f;fill-rule:nonzero"
   id="path132" />
        </g>
        <g
   transform="translate(39.2761,51.3915)"
   id="g138">
            <path
   d="M 17,88.5 V 73.05 c 0,-0.828 0.671,-1.5 1.5,-1.5 0.828,0 1.5,0.672 1.5,1.5 V 88.5 C 20,89.328 19.328,90 18.5,90 17.672,90 17,89.328 17,88.5 Z m 6,0 C 23,90.985 20.985,93 18.5,93 16.015,93 14,90.985 14,88.5 14,86.015 16.015,84 18.5,84 20.985,84 23,86.015 23,88.5 Z M 14,73.05 c 0,-2.485 2.015,-4.5 4.5,-4.5 2.485,0 4.5,2.015 4.5,4.5 0,2.486 -2.015,4.5 -4.5,4.5 -2.485,0 -4.5,-2.014 -4.5,-4.5 z"
   style="fill:#3d972f;fill-rule:nonzero"
   id="path136" />
        </g>
        <g
   transform="translate(39.2761,-10.6085)"
   id="g142">
            <path
   d="m 17,119.5 v -15.45 c 0,-0.828 0.671,-1.5 1.5,-1.5 0.828,0 1.5,0.672 1.5,1.5 v 15.45 c 0,0.828 -0.672,1.5 -1.5,1.5 -0.828,0 -1.5,-0.672 -1.5,-1.5 z m 6,0 c 0,2.485 -2.015,4.5 -4.5,4.5 -2.485,0 -4.5,-2.015 -4.5,-4.5 0,-2.485 2.015,-4.5 4.5,-4.5 2.485,0 4.5,2.015 4.5,4.5 z m -9,-15.45 c 0,-2.485 2.015,-4.5 4.5,-4.5 2.485,0 4.5,2.015 4.5,4.5 0,2.486 -2.015,4.5 -4.5,4.5 -2.485,0 -4.5,-2.014 -4.5,-4.5 z"
   style="fill:#3d972f;fill-rule:nonzero"
   id="path140" />
        </g>
        <g
   transform="translate(39.2761,-35.1762)"
   id="g146">
            <path
   d="m 5.774,118.898 13.38,7.724 c 0.717,0.414 0.963,1.332 0.549,2.049 -0.415,0.718 -1.332,0.964 -2.049,0.549 l -13.38,-7.724 c -0.718,-0.415 -0.963,-1.332 -0.549,-2.049 0.414,-0.718 1.331,-0.964 2.049,-0.549 z m -3,5.196 c -2.152,-1.243 -2.89,-3.995 -1.647,-6.147 1.242,-2.153 3.994,-2.89 6.147,-1.648 2.152,1.243 2.89,3.995 1.647,6.148 -1.243,2.152 -3.995,2.889 -6.147,1.647 z m 17.88,-0.07 c 2.152,1.243 2.889,3.995 1.647,6.147 -1.243,2.153 -3.995,2.89 -6.147,1.647 -2.153,-1.242 -2.89,-3.994 -1.648,-6.147 1.243,-2.152 3.995,-2.889 6.148,-1.647 z"
   style="fill:#3d972f;fill-rule:nonzero"
   id="path144" />
        </g>
        <g
   transform="translate(39.2761,5.39155)"
   id="g150">
            <path
   d="M 31,111.5 V 96.05 c 0,-0.828 0.671,-1.5 1.5,-1.5 0.828,0 1.5,0.672 1.5,1.5 v 15.45 c 0,0.828 -0.672,1.5 -1.5,1.5 -0.828,0 -1.5,-0.672 -1.5,-1.5 z m 6,0 c 0,2.485 -2.015,4.5 -4.5,4.5 -2.485,0 -4.5,-2.015 -4.5,-4.5 0,-2.485 2.015,-4.5 4.5,-4.5 2.485,0 4.5,2.015 4.5,4.5 z M 28,96.05 c 0,-2.485 2.015,-4.5 4.5,-4.5 2.485,0 4.5,2.015 4.5,4.5 0,2.486 -2.015,4.5 -4.5,4.5 -2.485,0 -4.5,-2.014 -4.5,-4.5 z"
   style="fill:#3d972f;fill-rule:nonzero"
   id="path148" />
        </g>
        <g
   transform="translate(39.2761,26.2129)"
   id="g154">
            <path
   d="m 32.533,88.203 13.38,7.725 c 0.718,0.414 0.963,1.331 0.549,2.049 -0.414,0.717 -1.331,0.963 -2.049,0.549 l -13.38,-7.725 c -0.717,-0.414 -0.963,-1.331 -0.549,-2.049 0.415,-0.717 1.332,-0.963 2.049,-0.549 z m -3,5.196 c -2.152,-1.242 -2.889,-3.995 -1.647,-6.147 1.243,-2.152 3.995,-2.89 6.147,-1.647 2.153,1.243 2.89,3.995 1.647,6.147 -1.242,2.152 -3.994,2.89 -6.147,1.647 z m 17.88,-0.069 c 2.152,1.242 2.89,3.995 1.647,6.147 -1.242,2.152 -3.995,2.89 -6.147,1.647 -2.152,-1.243 -2.89,-3.995 -1.647,-6.147 1.243,-2.152 3.995,-2.89 6.147,-1.647 z"
   style="fill:#3d972f;fill-rule:nonzero"
   id="path152" />
        </g>
        <g
   transform="translate(39.2761,72.9717)"
   id="g158">
            <path
   d="m 19.154,64.824 13.38,7.724 c 0.717,0.415 0.963,1.332 0.549,2.049 -0.415,0.718 -1.332,0.964 -2.049,0.549 l -13.38,-7.724 c -0.718,-0.414 -0.964,-1.332 -0.549,-2.049 0.414,-0.718 1.331,-0.964 2.049,-0.549 z m -3,5.196 c -2.153,-1.243 -2.89,-3.995 -1.647,-6.147 1.242,-2.153 3.994,-2.89 6.147,-1.647 2.152,1.242 2.889,3.994 1.647,6.147 -1.243,2.152 -3.995,2.889 -6.147,1.647 z m 17.88,-0.07 c 2.152,1.243 2.889,3.995 1.647,6.147 -1.243,2.153 -3.995,2.89 -6.147,1.648 -2.153,-1.243 -2.89,-3.995 -1.648,-6.148 1.243,-2.152 3.995,-2.889 6.148,-1.647 z"
   style="fill:#3d972f;fill-rule:nonzero"
   id="path156" />
        </g>
        <g
   transform="translate(39.2761,-51.4128)"
   id="g162">
            <path
   d="m 85.653,137.339 -13.38,-7.725 c -0.717,-0.414 -0.963,-1.332 -0.549,-2.049 0.415,-0.717 1.332,-0.963 2.049,-0.549 l 13.38,7.725 c 0.718,0.414 0.964,1.331 0.549,2.049 -0.414,0.717 -1.331,0.963 -2.049,0.549 z m 3,-5.196 c 2.153,1.242 2.89,3.994 1.647,6.147 -1.242,2.152 -3.994,2.889 -6.147,1.647 -2.152,-1.243 -2.889,-3.995 -1.647,-6.147 1.243,-2.153 3.995,-2.89 6.147,-1.647 z m -17.88,0.069 c -2.152,-1.243 -2.889,-3.995 -1.647,-6.147 1.243,-2.152 3.995,-2.89 6.147,-1.647 2.153,1.243 2.89,3.995 1.648,6.147 -1.243,2.152 -3.995,2.89 -6.148,1.647 z"
   style="fill:#bd3933;fill-rule:nonzero"
   id="path160" />
        </g>
        <g
   transform="translate(39.2761,-72.6085)"
   id="g166">
            <path
   d="m 75,135.05 v 15.45 c 0,0.828 -0.671,1.5 -1.5,1.5 -0.828,0 -1.5,-0.672 -1.5,-1.5 v -15.45 c 0,-0.828 0.672,-1.5 1.5,-1.5 0.828,0 1.5,0.672 1.5,1.5 z m -6,0 c 0,-2.485 2.015,-4.5 4.5,-4.5 2.485,0 4.5,2.015 4.5,4.5 0,2.486 -2.015,4.5 -4.5,4.5 -2.485,0 -4.5,-2.014 -4.5,-4.5 z m 9,15.45 c 0,2.485 -2.015,4.5 -4.5,4.5 -2.485,0 -4.5,-2.015 -4.5,-4.5 0,-2.485 2.015,-4.5 4.5,-4.5 2.485,0 4.5,2.015 4.5,4.5 z"
   style="fill:#bd3933;fill-rule:nonzero"
   id="path164" />
        </g>
        <g
   transform="translate(39.2761,35.3915)"
   id="g170">
            <path
   d="M 88,81.05 V 96.5 C 88,97.328 87.329,98 86.5,98 85.672,98 85,97.328 85,96.5 V 81.05 c 0,-0.828 0.672,-1.5 1.5,-1.5 0.828,0 1.5,0.672 1.5,1.5 z m -6,0 c 0,-2.485 2.015,-4.5 4.5,-4.5 2.485,0 4.5,2.015 4.5,4.5 0,2.486 -2.015,4.5 -4.5,4.5 -2.485,0 -4.5,-2.014 -4.5,-4.5 z m 9,15.45 c 0,2.485 -2.015,4.5 -4.5,4.5 -2.485,0 -4.5,-2.015 -4.5,-4.5 0,-2.485 2.015,-4.5 4.5,-4.5 2.485,0 4.5,2.015 4.5,4.5 z"
   style="fill:#844f9c;fill-rule:nonzero"
   id="path168" />
        </g>
        <g
   transform="translate(39.2761,57.5216)"
   id="g174">
            <path
   d="M 98.28,82.872 84.9,75.147 c -0.717,-0.414 -0.963,-1.332 -0.549,-2.049 0.415,-0.718 1.332,-0.963 2.049,-0.549 l 13.38,7.724 c 0.718,0.415 0.964,1.332 0.549,2.049 -0.414,0.718 -1.331,0.964 -2.049,0.55 z m 3,-5.197 c 2.153,1.243 2.89,3.995 1.647,6.147 -1.242,2.153 -3.994,2.89 -6.147,1.648 -2.152,-1.243 -2.889,-3.995 -1.647,-6.147 1.243,-2.153 3.995,-2.89 6.147,-1.648 z m -17.879,0.07 c -2.153,-1.243 -2.89,-3.995 -1.648,-6.147 1.243,-2.153 3.995,-2.89 6.147,-1.647 2.153,1.242 2.89,3.994 1.648,6.147 -1.243,2.152 -3.995,2.89 -6.147,1.647 z"
   style="fill:#844f9c;fill-rule:nonzero"
   id="path172" />
        </g>
        <g
   transform="translate(39.2761,-10.6085)"
   id="g178">
            <path
   d="m 47,104.05 v 15.45 c 0,0.828 -0.671,1.5 -1.5,1.5 -0.828,0 -1.5,-0.672 -1.5,-1.5 v -15.45 c 0,-0.828 0.672,-1.5 1.5,-1.5 0.828,0 1.5,0.672 1.5,1.5 z m -6,0 c 0,-2.485 2.015,-4.5 4.5,-4.5 2.485,0 4.5,2.015 4.5,4.5 0,2.486 -2.015,4.5 -4.5,4.5 -2.485,0 -4.5,-2.014 -4.5,-4.5 z m 9,15.45 c 0,2.485 -2.015,4.5 -4.5,4.5 -2.485,0 -4.5,-2.015 -4.5,-4.5 0,-2.485 2.015,-4.5 4.5,-4.5 2.485,0 4.5,2.015 4.5,4.5 z"
   style="fill:#bd3933;fill-rule:nonzero"
   id="path176" />
        </g>
        <g
   transform="translate(39.2761,65.3915)"
   id="g182">
            <path
   d="M 4,81.5 V 66.05 c 0,-0.828 0.671,-1.5 1.5,-1.5 0.828,0 1.5,0.672 1.5,1.5 V 81.5 C 7,82.328 6.328,83 5.5,83 4.672,83 4,82.328 4,81.5 Z m 6,0 C 10,83.985 7.985,86 5.5,86 3.015,86 1,83.985 1,81.5 1,79.015 3.015,77 5.5,77 7.985,77 10,79.015 10,81.5 Z M 1,66.05 c 0,-2.485 2.015,-4.5 4.5,-4.5 2.485,0 4.5,2.015 4.5,4.5 0,2.486 -2.015,4.5 -4.5,4.5 -2.485,0 -4.5,-2.014 -4.5,-4.5 z"
   style="fill:#3d972f;fill-rule:nonzero"
   id="path180" />
        </g>
    </g>
</svg>
